<mxfile host="65bd71144e" modified="2020-11-05T08:08:43.812Z" agent="5.0 (Windows NT 10.0; Win64; x64) AppleWebKit/537.36 (KHTML, like Gecko) Code/1.50.1 Chrome/83.0.4103.122 Electron/9.2.1 Safari/537.36" etag="K_dN2vCYhSfIHwZQBlo2" version="13.6.5">
    <diagram id="z8aSSZw8ljTNvTiitNOK" name="Page-1">
        <mxGraphModel dx="5194" dy="1600" grid="1" gridSize="10" guides="1" tooltips="1" connect="1" arrows="1" fold="1" page="1" pageScale="1" pageWidth="827" pageHeight="1169" math="0" shadow="0">
            <root>
                <mxCell id="0"/>
                <mxCell id="1" parent="0"/>
                <mxCell id="18" value="" style="shape=image;verticalLabelPosition=bottom;labelBackgroundColor=#ffffff;verticalAlign=top;aspect=fixed;imageAspect=0;image=data:image/png,iVBORw0KGgoAAAANSUhEUgAABTsAAAL5CAIAAADwr2cwAAAAAXNSR0IArs4c6QAAAARnQU1BAACxjwv8YQUAAAAJcEhZcwAADsMAAA7DAcdvqGQAAG4YSURBVHhe7f1NqCzdmS/4vW6ay73XbtyDsulBtbkXbOoO2sITwfXRpCwP3DXypQaioRFtcHE80MgCY83UtIyEWxTa9NtFoVaBCmogg0A1KHE0EJQoaVAUNVCBQBochAYl0OAdCKGBBBpsR8R6InNFrLUiI3Nn5o7M/P1IpHeveNZHREZmxP/k/vjgGQAAANgeiR0AAAC2SGIHAACALZLYAQAAYIskdgAAANgiiR0AAAC2SGIHAACALZLYAQAAYIskdgAAANgiiR0AAAC2SGIHAACALZLYAQAAYIskdgAAANgiiR0AAAC2SGIHAACALZLYAQAAYIskdgAAANgiiR0AAAC2SGIHAACALZLYAQAAYIskdgAAANgiiR0AAAC2SGIHAACALZLYAQAAYIskdgAAANgiiR0AAAC2SGIHAACALZLYAQAAYIskdgAAANgiiR0AAAC2SGIHAACALZLYAQAAYIskdgAAANgiiR0AAAC2SGIHAACALZLYAQAAYIskdgAAANgiiR0AAAC2SGIHAACALZLYAQAAYIskdgAAANgiiR0AAAC2SGIHAACALZLYAQAAYIskdgAAANgiiR0AAAC2SGIHAACALZLYAQAAYIskdgAAANgiiR0AAAC2SGIHAACALZLYAQAAYIskdgAAANgiiR0AAAC2SGIHAACALZLYAQAAYIskdgAAANgiiR0AAAC2SGIH4E580BCbAQBujfsYAG5b5PIVogMAwI1w+wLArYogfqToDACweW5cALg9Eb5fIAYCANgwtywA3JjI3C8WwwEAbJX7FQBuSaTthijKxIa2qAMA2B53KgDcjAjZhdi8KEprogIAYGPcpgBwGyJeT8W21aJbITYDAGyJexQAbkAE66nYdqToPBXbAAC2xD0KAFsXqXoqtp0qRsnEBgCAzXCDAsCmRZ6eim0vEANNxTYAgG1wdwLApkWYzsSGF4vhMrEBAGAb3J0AsF2RpDOx4Uxi0ExsAADYALcmAGxXxOhMbNh5//RmaH/7LhrevR2+7uyaFkXxKFoBADbArQkA2xUxehStO106f/P0NET0N0/vU3pPOT2CfN96QF82FRsAAF6b+xIANioCdCY2TKVw/ubt2zeTfB6Zfc0H7X1dJloBAF6b+xIANioC9ChaC82P09P3x6+I7H1ZJloBAF6b+xIANiHi8qBs6aTGUnzGXvn+9yGyH/+N8dEKAPDa3JcA8AoiHB8jehbaiT1tOfwh+zD8RGwAAHhVbkoAuLjIwS8QA9UcSOwrPmPvpFl2ohUA4FW5KQHgzCL1nlUMXXMgsfsbbwDAzXJTAsCLRMY9q3LYNFdVM7EfEdgldgBgi9yUAHCESLQXEBOMonUUrTWtxN63r8zrEjsAsEluSgBoivx6ATFBW9SNorUmJfZentqPyuuH9jSKAACuy10IACHi6QXEBMeInqNordl9xr6P7p3az7UviF7Hi/4AABfgVgPgQUXivICY4GVirFG01uwSe3x9kjTLecXQAACncj8B8CgiR55bjH5uMfooWms2m9iXxcQAAG3uGADuU+TCC4gJLiwmy8SGwssTexp/O2JZAMDDc1sAcA8i6l1ATPAaYgWjaC2cPbFHayY2bEAsCAB4DK79ALcn0tsFxATbEGsaRWvhCol9QfTZgFgQAHBHXOABti4C2QXEBFsVqxxFa+7d29i2c1Jwj76jaH2xGG4bYk0AwE1xCQfYlghYFxAT3JRY+ihazyqGzsSGC4vJNiAWBABsj+s0wGuKzHQBMcGNi50ZRetZxdCjaH1VsZQNiAUBAK/ExRjgeiIGXUBMcHdi9zKx4Uxi0Exs2KpY5TbEmgCAi3G5BbigSDbnFqM/htjnTGx4sRguExtuU+zDNsSaAICXcU0FOJsIKxcQEzykOARTse0FYqCp2HaPYg83IBYEAKzgwglwosgfFxATMIrjMhXbThWjZGLD44n934BYEAAwcnUEWCUixQXEBCyKgzUV244X/TOxgak4OtsQawKAR+L6B1AREeECYgKOF0dwKratFt2mYhtHisO3AbEgALg7LnIA8vltiGNaExWLorQmKjifOLIbEAsCgNvkSgY8nLiRv4CYgEuKY10TFYXY3BBFXEsc9w2IBQHAhrlcAXcu7s0vICbg6uIJeLEYjs2IJ2YbYk0A8KpckIC7EvfaFxATsA3xrLxADMTtiGduA2JBAHB5rjrAbYs76HOL0dm2eLaOFJ25I/HUbkAsCADOxKUFuCVxU3wBMQE3KJ7CFaIDjySe+w2IBQHAMVw/gO2K+9wLiAm4L/HsFmIzTMX5sQ2xJgCYcoUAtiLuWy8gJgBYLd4+NiAWBMBDchkAXkfcil5ATABwGfFeswGxIADul/d64Bri7vICYgKADYg3pm2INcEFvH96059kb57eR8MLpLHevosvgSnv5sD59Vfxy4gJAG5NvIttQ6wJTvX+3dshsr8saL97O4wxkNihwVv2qfxz4Lls50gOKznLPxY/muFKexExAcC9i3e9DYgFwUHxOftL7+HONAzcLe/Lx/PPgeeynSOZrURiXyMO1rnF6ABk4i1yA2JBG9XlPtfwqxvuoF563NNt2Cm3ggtPuvOB+7GNN9/0b2sveVmdPMKpHVO/+ZvLy3fk8dSP5Gs47tl7pOe6f4IuIEYH4FTxfroNsabX4Q7s9fR5+2W3cScm9oUn3fnAXdnETfP4Aefpr/aTRzh96tqby8t35BHVjuSrOOrd/Y6f67RjlxATAHAV8eb7emId1yChvab+6L/khujEW0GJnUexiXvol7+qTh7h9Klrby53/vaQdm90tqh6m4n9bp7r/uBfRkwAwPbEO/XlxXwXd+e3YHdOYodF7qpPtZmceR3D7u72Nr0PnumN8DYT+43qD/VlxAQA3Lh4Wz+TGPTiJLRbJrHDIvfZp3qkxJ7e9ib7esZ3Qon9YvoDexkxAQCPJK4Bx4ie55HuGEbjBTtdvivyK/qsaHrXsdu4a85mykqzQSo3RdXu04nC4mJKL13eTn78Zrc7xS60JhlE9bw59TjhRip1rC66sebZIdx78/SuvWnofszih8Zpv96k72wp1b2Al3HnfaqFN5d7U93V8+3/Zo5kess94UKzEf1hvIyYAADa4pqRiQ1nMVykdzcL2b3D+3fvugv3wjV8qM22pL77hndvu/9O/YcB++0xUVbaF0Sf6VxdzZunp11hts5UtyscHFpM6YXLC9myeqnn+HX31bgL2cpj62y49GWyHy8GHMxmXmO6nNHCmhee9KXz4YjFZ6V9W/dl2tTX7oqGjtkkaaCsAc5jG/fi6VWRv1DH10n95ZRXJu0RKvJXUtkxmXUvC9JyZu2nLWPlUjvrVhWdsuJ5YXYsD7+vvH9fK6juf8PydAsjLXQc9y7rl1U311Uc66wybdvPk9eWA6atzYkuLq3rEmICANiM4aqbX3TfP73Nbwzm1/BRXMsnG2q1Y9u7pzf5LHGP8jT9Q2GpNW+J7m/fTv+gWMw+jrh2MaUXLq9vmd2xRNd9424h3ZbJcorKYr9G5cQrVaZYs+aFY3dw07rFx4xP2cm2O/FinEmPhWnhBV777jy9EpLdS6drXP1PffUROsMg0xdMKh1bWx3ThqzvtNsoteZr3jlqGZ01Nall2mnSEO8bvb6x+zJt6+vycfJj2UnDTPZ/lbX9VkxXH2qxY/fV+jNkNLRnzakumyPv2M831qa59z3T18m+92XFdBcQEwDAhsW1t3nZbV78Kx871GrjpmA+wnjJn85bDhDdy/nTAOMdysrFlF60vL6qmKCYd5yiOMaTXUiidl5ZjLlWOcWqNS/Md3DTusXXD3By+rMJx9rE/Xr1pbM757sXy+TMr7xx1EZ493b26kr9Zi+iomM0TMp2S4mvB2dcxuGaY1dV/bfAXr+9Otms8ZCVnVZNVxtrTcfdAei2zI5nOeBQPBuxr8ybxgH7H4CalDYHrAx5Rv345xZDA8BtSdfiQe3aW70raqjVNvrX7gBqxe3phxEW1rVu4S9ZXnbkCtmIqVfl4FYmadSu25eKYop1a16Y7+CmdYtP61i/RycfAVi0jTv4ynvB+HoqX1G14rJx9g9fMVr5Epp3XP0PZudbxoqaI1dVrCv0W4tDUB1nWXXfSyunK0db1zEOVLmQcsCh9OAuHjFgp9p4Pv3g5xDDAcCtS1feMLuql7cXM5POvWlto3/9Yl8Wt6dPW6r3EJmFhQ9esLzqAiqau1CZJNWuOC4rzadYueaF+Q5uWrf4+gGeOfrZhGNtPrGXL5Lqi2f5FRVj1V5Aa16K61/DJy9jZ01NsrCqRu+0sW7FhKM1h6y3drpivJUd41CVC6kPeHgP1w/YqzaeTz/48aIzANyp/CYhuwhX74rCvkvqUKtt9K9f7Mvi9vTDlmzDmsWUXrC8VHNogoWFVCZJtSuOy0rzKVaueWG+g5vWLb5+gPfS9l6qOfkIwKKtJ/bKOV998Sy9ouKVWX/5NDvuX4NhzWv45GWEgzUnrSqkwevbVms+LYXV083XvLZjcyn1AQ+vefWAg6VDfQb94IdEKQA8lnQNzq/ZzWt42jC5YNdqG/3rF/uyuDl92jIOkMoOLqbUqFqzvJhzXlRoLqQySWPM5hCHzKdYueaF+Q5uWrf4+gEOMVC+eWFaeIH7T+yN1+Wo1jG19VL7+tfwycsYLNecvqqQtr3oXeSYIVbXzte8tmP1APTmAzYLZ1YPOKg2nlU/fiZaAeDxvH96qlyG99fs1jU8tU8v17XaRv/6xb4sbk2fNoz9U9XhxZQaVauWl4qKqrnmQmqTrD0uKxXDrVvzwnxLSzli8fXSJHWYbjz5CMCie0/sqb3xUusVHeP1VzateQ2fvIzOYs2LVhVijMVFLDmy/+ry+ZrXdqwegN7FBxwsHWoA4Jy6q+70kjtchufX+vIanq7W076pbVrb6F+/2JfFren79n3vtYspvWh56evaHO/e7bu2dqE6Sa0tppkOMTbO1zhVDrdqzc0lL25av/h66Shtm25MbfVp4XT3ndhrr6WZecd4xU66VJdy3mUcqHnZqkZr1tGUOh/zHrR2umLNKzuuP0OalVPrB+xVGwGACxiuutkluv96csVOl+V9U3dRH67Rs/b+Wv/mTXm9b9wD1C/2ZXFq6c1bJ31XLqZ0puVllUPT26f9rzZuTNGYZLYn/dfpj+2M+k2pKJkvcqI2xZo1z1fRFYzlC5uKbd3X5eLHLZ3G2mfD9Ktb92zCse45sae24mWWv2TLjrVOqW22lNqM1cbaiJ3JMg7V1LantjWr2knHtHpQs39krYiOzfXVrZyuXPO6jqmqVlQehOrB6uW/hf+YARuNAMAlxL3BqHm1HnUFcY2f9Bz6ZS3d19N+neHaPptvnLFevL+FKCebOrSYKMucY3m9WY98rlavxiTJdGN+GLJJO7W2vWLqyTFYWHOY9u8K9jd2C5tWLH42dacy+6Ro2J61VOrhRPeb2FNL2b9rzxuLjrN+/TKq/2BWztgpG2fD7XTtu8YVNbOS41aVGd9IsoqhKf8Hy8KK9TWsmq625jUdU01lBdWDkBon5fMBThlw1ggAPJ7mLQQODbzYayf2yFF7/Su6aIxYlF7zmWrx8J5QtObSu0a943yaoTFr6b5et+ah44plrKrpHFpVcXCyvlOzylbZqBw4c6hzZ2G65lMwOKbj0hmyN+uWbTxqwOVlAwAPJt0vuB+oGO6afMABL7GNz9gBAOA2SewtfWCX1+FlJHYAADidxF7VHxZxHV5MYgcAgNNJ7MDlSOwAAHCS4rfbCO7AeUnsAAAAsEUSOwAAAGyRxA4AAABbJLEDAADAFknsAAAAsEUSOwAAAGyRxA4AAIP0p9XfvosveUzpj/ad8If6nD9cgMQOAMDDy/+yusT1sFLkTo5K7M4fLmbDif3kf9xix7/zAQCsFnnNvdO5pAN6c/fzp8YQ5w+XsMnEfvI/brHj3/kAAI6V7qDm907dvalb0lOMN6S3djN68j801M8feJFb+4z9Rv+hbue6649/+rjmu8atP0EAwCOrJC43N6e71WN38roldi5gw4m99lK51X+oG117/Zd61+iem/p72K0/QQDAQ6vcO0nsj0diZ0tuLLHf+lvmtdd/kXeNpZ249ScIAHhoEjudk59ziZ0LuLHEznGuntgBAG6YxE5HYmdLJPa7JrEDAHci3daM6nci6S4lU94F5cOUg0zvnYrhRnnHWdFL7ruW17bmCBwYIVk4SrFpvhNp2IW9zpVl9WMy3Z2yZpwi25J1qY+58ggUqrtzwhFOW1trg5NI7HftIu8anhgA4LqGu4/dHU31Bmcoye5PIoPlVdNRqsNM2t6/e9cNt3DnM1RnW1Lvk26SDq1tur229BV7F0X1oxT/Oci6pXEG+Y51zfP9TJVja9avWEXaWE6SjTiM/zQ0p7p899JS5/NPSjpp0GLuQl+Xj7U7EPMJVoy/dk44wpYS++7lkZu9VFLN2pdBMWKlY3phjaojDyWxkGzIqB1bdl33I5ajnX39+fKL962ld43ljpPN+4JiQaPdCMftIADAYcP9RX578f7p7eTupSgYvHubN/U3N7OS8k6pcu+Ubm7Ku6W4LZpsaNUecnBtB4/Amr1bcZRip+ZFaah8v6bHtlOWdKrD9ZXlIUr9p6W7w9ltnPRIxeWw1TXNGqf6KcrF7CaOr3urxl8xIxxrK4m9P73zV0W8vrPG9AJIVrwMhgGyEWPASc9hyKwlpih79frW7su0cbfc7j/Gf/+LgnHE6Lob7PzrzybrpQmmQ9faDnecbs82L/5L85E7CMAj+rs/fv78H/SPH0fD8zeHL/vH56Kl89FfjI1ZZe7Hn9sX/NlfRGOy67vv+Lf74m/+bbSFnz3/2ax4kMafjczribuM1g3GcG9S3JpM9UMUJeVNTXFb1LzzeX7/vpywVbtsxdoOHIE1ezd8eWhpqU8xT7Ffs52PbuXo5fEcSqv7kWrzMWLYsr4cds0RKA0Fle1lx5XjlwuDF9tEYu/P9vK1UnuNpbaDL4OhrCgq/521nDS9zGZ947XXJfNd/eTfNWOlb99O/+RZZbFnXv+spHyPKFtWdCxmn/0jbuxucex6K3cQgEfUxeC/+1mE9j4hD0E6ReU8IXcFEZVTnP7j54+Gr8LQuA/eKY2Pab8bp+ub/hUgjdxPN25NU3dryL9Mj2q8l9i3I92rDMq7jGFj/c5kJxugkHed3hQNlu585o6p3Vm1tsNHoGEcYag5uLLGrdzyfkWn2ubieC4tIxVnGxuraQ3b0N7p5mKK/V07frEweLkNJPbhJVF5rVTfGta8DFoD5oaa6jBphkn38TXamjattDJludpzrb8fpygpj1h9AQc6pk7tRZbTZNbsIACPLGLz3z7/Wfah+i54d1t3ibqTsvesZfY5eUr7eeMumXfFed+y0mfsNyRuUJL8PmTxziSkmhU3KJU7mYPjT1bWW17L3JFrC+URWB5hzVHqpLJirKXe0aW+cX48F5daTN6c9qhhm9q95hOvHr9y/sBLvX5iH07s2mu8+hpd8TJoDphZqklT5BvLlqnqSgfFPGmo86y/YXG6VR2zotpK27vbKWYEgIn4ZHv2yfn4yfYsje+yd9IH6VnH8dvg83QdUzRy+JrEXo7JNuR3MuPtxuKdSUj9Dtxf9Sp3Mkvj79eTuqxZy9zqtQ1qR2DNCCtXlsqKW7l270aH0fx4Li61mKU57VHDNs1H2ZtPvHr89pBwsldP7OkFsealMjj8Mmi+tDPtSTtpY7710KTtKYuJrrD+3Hy6IzuG2WIWV3h4BwF4bLMQHqbf3L4zK97/0HvxKBP7LPx3JPY7Md6mxM1IujNZvvtYUzOo3Mk073xi0Lx68S6pYfXa9i53BBplrf2KhbRHnR/PxWWkjdm21rTHDdvUHL7Ysnr8yvkDL/Xqib19XldfRIdfBu3X3l4apVFTDnBo0vaUw5ZjhjrD+nPz6VZ3HKTqJFvy4goP7yAAj+30xJ7SdVFTqk8hsd+w909P03uL4YZjvBlZf/N0+BalcifTGj61r6tdtGZty0dg3QirllY5AJ165xXTFsPVjtqoL57M0VxzMeyKpVQ0xy82rB2/WBi83EY+Y6+8UupbDr8MUrflV8piTdqYbzs06YF9OGaoM6w/N59udce9NES+e+3d7RzeQQAe2+mJPdUU3xVfktjvTnd/Mb25GG449k3p/qNyc7L/leZxE1SpefcuG7pyJ9O680ml09rKQmLipbujFWvrBl46Aqv2rrK4JP/F76loOte4C9OuqbLYr644a6oM1+g3zDJbXJq4tlfFsKuOQCF6zdYSrZPBVo5fO3zwQq//c+zNl2J1w4qXQXPATLzoquP0U0x7H5p0eRcm/c60/jTM8ji9Yro1HZf/EffAAlfsIAAP7fTE3kjXJYn97szuRYavp7cicYuTN87vWNLXk9uUdKv2dCCwprbJQEPBrL0f7M2b6ZyxrMHS7dHBtQ0DZXvXf519uWKEXiwn75j6zUae7cKbp3cxei9tmpeNhvJ9Yyqb7fq41nlhcYSKxY1qw646AoXotZ8j7UCaYDBuWjV+dX/hZV4/sY+n/+zUHl8Us9foqpdBKqq8urN/QYzXYTFSP++856FJ01rL+fr2Wa9zrT8OT6XmwL/zrejYdZoucBhl39Ta3UFtB5v7A8ADOj2xjz/HXv6A+swRiX0cU2LfuLiBGdXvKtIdx06taGGcWe/Jxum2bkPck02GG+qzll3/aDtw/3dgH5e3JmtqVhyl6TBp2bN9KA5WLg25dDx7s+3zo1N0j4LZPs6GXXUECpNe1f0dLYx/aH/hZBtI7LuTf39ed6d890V24u82pbb5q6cQXfNXSpokaxlfcnlR368c/NCk+xfvfMKiz/nWP06ajTU0Hfx3voMdh07Z1P3X+Upi1MlSdoOVM47zTccA4FG9JLGnIF39xvgfZzn8pYl9/OBdYucs0r2QGyHgJJtI7L1druulwBdNkf5SFMwcet+bdaiXz4rypNmbrGpQG2b3Pjwpn1VeYv2z5eUly9MtdOwsb+1NR+8KOq0Zd+3zgwvAQ3pJYu+klrwyxfiyZmViT437cN6t5I+ff5z+aUBu5xyGeyH3QcBpNpPYb9kuscfX5CL/OzwADy9l4/zRf7I9fqC9e6SEXC8exCft4yNP1K1esy7do/KvAOmR/i1g9c/MwyF9YJfXgVNJ7GcgsQMAUOrvEsV14AUk9jOQ2AEAADg7if0MJHYAAADOTmI/A4kdAACAs5PYX6b4BemCexyHD5xatyn9cqbZL1KuNgIAABcmVnFOEdYzsYHty3/B8i6cVxsBAICrEKg4p4jphdj8aNJH0y/5Q74nj3Byx/QnjmbhvNr48r0DAAAWSexXFfn1fhNs7F5DFD2Ob6ZPp9Of9j3JySOc3DF9qD4L59XGl+8dAACwSGK/noito2i9O7F7bVH3CNJH03/3s/jyBCePcHLH9Yn95XsHAAAsktivJNJqJjbcqdjJtqhja9YndgDgVqS/bPT2XXy5Tek3OvvzSzAlOF1D/+5TiG13LXa1LerYDokdAO5J/oeNNpvY0z8oJBI7TIlMFxfvPlOx7THEPrdFHVsgsQPA3YlE7DN2uEHC0mX17zuF2PZgYufbou6elH/GPLV0jx9Hw/Pz30bLrDJZGKF85L+2veyYzLqXBesT+8lr6xxcBgBsThd7bzZNpjA8T+wb26P07woSO0xJ7BfUvzMWYtujiqPQFnW3LkXcWRztGrvgmn7Fekrs/S9vG3/X+uwXuVVH6KRBJlLm/+Pnj4avWh1TWd43rWT2q+NS91mEnjWevLbeumUAwLbceJqsJPbt7ZHEDjUS+0X074k1sfnhxeFYFKU3LYXwWfrdJfMuqeYxtRqVyxG6sv3n84Nq4p13/NnznxVl6YPuWcauLuNsa1u9DADYFon98iR2qJEhz69/Q6yJzYziuCyK0hu1EHS7xyzcrozKH9WSeRl35x1/ln3KPXphYj9lbauXAQDbIrFfnsQONWLkmfXvhjWxmUIcoEVRenOqQbf8aDpZH5V34qfB8+85Hy13TM6e2HMLa5uR2AG4ARL75UnsUCNJnlP/VlgTm2mLI7UoSm9INdOmxD77JvbO0am49h3mO82O2S+6S4+LJPbFtfUOLQMAcinLZZEzJdDeJIV2onTenDrkabAYMx81bx0LC/NsmXXvzFfQMu1Vz6vFEsrB82HKQdLWsdeF92iwvJ6kuo5WMTwqYfJs4l2mEJtZIQ7Zoii9CdVMe67E3vqsPql2TD9Vvmu/3Gfsy2tbswwA2Omy35unpyEA9mluiHkpPEbiGzNeHgCzdJllx10azMbMhopOaZzdqO/edf8xbSsMc5RzNutDPuvYKRulN5Rk46SFTKqmo1SHmbRdco96K9aTWvPBYr/WzQCPRJ48j/QOU4rNHCkOX1vUbVw1054lsaf23e+ZL5Ud07x5lwsl9uW1rVwGAExFvnz7dvr3yCLnZXGwbBmk2DhNgzHm0/tu42RLJWPuauPr3Dx8JmmQYiG5YdC84P3T23KFxQjv3uZN/TyzknL919qjzpr19HOX4y+tCB7XjSSf999//sonhxv9xqPb+s3PPv/jN54/+ml0uaL+PagQ23iBOJRtUbdZ1Ux7hsQ+fkv57HfX5eYdx29Tz7tcJLEvr231MgBgKqW5Zozcp8EonMfKWhqM0rK4SJj1/smwZT7CIA2zkEBTQb1zZxj5QIDthyhKysVea49Wrae1X+0VwSO7kWC5HNdnjy9/4vmv/uT5ex/2Of/XB3/t1Uv171uF2MY5xDFti7oNqmbalyf29F3l86jcheHsg+t5x1qQTjXnTewH1rZ6GQDn8rN/eP76p59/+K34kpvVTnNDitxvSIVF4Kz1b5Qel29n008cDLipYNBYxULnXjZAIe+a6i6/R2vW0xy/uSJ4aDeSLX/w1bjRP+HRBfhvfKYP8N01+ze/igHPZHj7mYttnFUc3Lao25Rqpn1hYm/l2649byw7zv40ereMPxtWcsbEnlqW17ZyGQDn0sX17k2me/yi/s0/3Ip2mktbdmE0fVkE4Fr/5phH5NvZ7FONtUxMMm4+fnN1mcXZc1faozXrade0VgSP7V7iZXcZ/vu/7JP5lz4eF+bW4yuf7C/e3/3T/l8Bugz/gu+i79+vCrGNy4ij3BZ1ry5l1/zRZdSyMd09pm8Lzx/V4j7lFr9iPX+k0Fvv2Bm/I33fmLV0fVeu+SVr6x1aBsB5ffOz8Q7T3SRwy9ppbtiy35AKi0RY698c84h8m0pr6+o0J5jLY/s47ZrOi7PnrrRHa9ZTWUpYfbjgodxjwuzS+w+/9fydL+7/Wf3g4wsfm7d0j5Ttu0c31Pc+jITfPX75826S/q2mkObn0uJwt0UdAHR3BbsrO7esneaGLfsAmAqLRFjr3xzziHzbmC5JG+vbSmnW3SSLI4c1NYMr7dH6NVeO+sIWeGQPkG1OCPDrHn//f//ffOe//v3/9g9/77/6L/6Tf//7/yqm41r6C8KiqAPgwe3+Xf57H0YLN6iZ5oYNeUSsf4Zb698c84h8GxvqIbUfZymAvn96mnYbJh57NKfMpJUuR+TetfZozXoOTLy8w/B4Hi/VdAH+Z//Qf2D+3T/tM/yHf7RL4Gd4dKOlX3r3o28///M/xYxc0nBZWBJ1ADys73xxf6UW2m9WK8317dN8WAmnYwid9W8mxGPybTul9l2W42fXs7L2fVMauTLG+/djU+xZbSfeZUNfa49WrSdqZsNH66EJ4OHIM22//Hl8G/zf/2V/ge8eX//09/6b//yH/49/s7/wH3xUv9/+VR5f+eTlfgPfqxve4JdEHQAP6He/7f89fXdB/JvPX+FPyXB2Y56bJrq+tciV85zbff3m6d2u/35TGrMWLst8W4zadd4V1MJmX18sbWYYM+vUfz1dTpp10jhf9Th5NtnQ9PZpF+vHcS6/R50164ma/ejd2N0Xsbe9fGJ4bJLMWvH2kfl3v/cv/sv/7f+8z8Df/Ozz1z61vxW4iUcX4Ltbli6935F4YtqiDoBHMwvtX/iYv/d2c1LG63LcGAgHjVw3qYnoGG2RI7NsmET7tGcnm2Hap19KFomLIVdk22K6+u7MBq4VLYxT7Oll9yhZs1+TmtpzBAxkmFWGt5KK2Lzz0U/7PwJ/Wxn+y5+4s+gez01b1AHwULrQ/o3PTK6Av/D33m5JCnPV6Adwx6SXw1LMK8XmW3HwN/Bd8g/XX188SW1RB8BD+cl397/Cxt97uykSO/CY5JYDUrorxebb1QX4Lr1/5ZP7xF593Pg3z8ez1RZ1ADyO7gq4u8x9zy+iuxkSO/CYJJYlKdSVYvN9WBndX/HRre2bn33+x2/0P3RwknjaFkUpAI/grz+3v8r43vgbIbEDj0lQaUpBbia23aUuD//o2/FH77bzK+5njy9/or/N+sl3Y83HiKdwUZQCcN9+99v9z4h1/+FXx98CiR14TCJKXcpvM7HtoWz2E/gvffy0b9eP53JRlAJwx/Lvjf/Cx55/8NVoZ4OK33YuuAOPQzipiIvBVGzj+rqbqr//y/73A3UpfXd3VT6+csQfnI8ndVGUAnCv/ubz+4tIF9oBYHvEkopIbJnYwKtb/5n/ip9+j2d3UZQCcJd+8t39D4Ld0R86BeBuCCQVkdVG0cqmHPXt+l/+xEJ6j6d5UZQCcH92v4Wuu6b87rfRCADbIIrURVAT1W5Il+GX/+B8enTp/a/+pP/m+fffn/2qoXjK26IOgHvSXQu6S0O6RvzN56MRALZBCOFOrfzp9+4ubfrT75HO29LwW/TDb/UfEHWP7j8AWO8n391fF7rLBwBshsTOA1iZ3rtHF3eHAP+H/+Zf/6f/8j+KjF4TI7+66k8H+P1JAMfq3vzTW2j3HwCwGRI7D2blN8/f9MN3dQIcq7s67N5Fv/dhNMLNyv4i3rX+FN7wF/NXTxYLfPsuvl4l/VH+WZ800nEDwS2R2Hlsdxbgv/lZvzYJ4ES7X0HXPYR2bteQYIcAmzL027dPF06zJ/zzwPv374b0vbZDNsU0nKcQ7y/0c88kdsjcXID/8if6T9T9RSKAl/vdb/tfTbp7gxXaOYuUKK8WKPtkW3zcfJU1nDBJiuHru0Q6n+7fsYPAzZHY4Qj9NWEqNgBwB4R2zm38bPg637Q9RNoivF5nDSf9s0DqtHphaU/OnNi7NVwt719zLu6HvAFH668Mg/gagLsxC+2+iYmXOSnHnmqYrJzrOms4dZah38rMXkvsad5T/zXiOscmueZc3BWRAwAg04X23c9GfeWTfj8IN2MItK+VCF+QR7t1r+snsfOQJHYAgKlff7T/g6D+AAc34nUT4TVmryX2ofHkaSV2boDEDgBQ+OG3IrF3Dz/Qzi2Q2I8nsXMDJPbx5XPqN9MAAPfpG58R2jcnZbakkn3yzY1wdGCETro1DGPJ0C2+iIL5zWMaeTZm9T6zMlivPmBSX+oor9wb+5RrGCfN2rIh5uvYydaaZJVp236ZeW1rwPU7mKT62Wj9RLPOMfd82tR9elQqZoMtLHIcIpuofhjPMBcP7LETe/6qaL2VAACPya+O35Yh9exv2NJt3DwV7b4uNncOjdDp27KolN8rDu159Mp6ZnW73nnfXWnWP4ZL9bN51yw18+5dvyWNnY9SX0PX+ObpKRsxn6wyyGBoz5pTXbakvGO+N2kJxYD5nJ0DOxhWVMW6Bllh6jmIpbx/9677/3zVpcVFdl+tPYwvnovHdu7EvnwqrnHyCKd2TP3mr4iX7wgAcOtmof07X/SL6F5Ln2Bmd2vTUDPcu+UV75/eTm7kDo5QDtGp3RLWbx5jtDWlMW+X93bFk9UeXmpNbam96hp2xd3Aky61iYbiYu53b/OmccB33f9PSmsDnraDq2p61T0eu0/2dncY4uvcmkUecxhfOhcP68yJPZ1aLzm5Th7h9Klrr4eX7wicQXpvdxoCvKJZaP/ap55/+fPYxNX0d2ZF1JkmoLh5a100145woGaQmoqpKpXjsmalsdbGYlcstapZUltD7EO5hrJ4KF2cuXfEgKfuYHVHamIt88LKFO1Z1y0yZlqz1y+ei4d15sT+8lPr5BFOn7r24vca4ZWl0zI5fGUC4JJmof1LH3/+yXdjE1eRXxXndrdrWVF55VwzQu2WsDM0T24K031iUVm9fawOmhobN5prllrVvH2traGxD5XioWFx4sGRAzYsz1PbkZr1T9CBY1aXla/f65fPxcPym+fWv/i5cc33ydVOHuHUjvXLwMt3BIATfO/DfWjvHn6s/XrSlW/Fvdok+uRXylUj1C+7w5jTtnph/QJdvc9cuvlcvbOF6vy92nSri5uFM0cOeMoOLh63XJqiKKwssbXqtYts9a8t9aVz8bAk9vUvfm5bep5f8kyfPMLpU9dOzpfvCAAn+tk/PH/5E0L7haTLWye+3kuXvkosqhovlL3xYrlyhPIa27cU3VLEKq7E1USWhpyVVhvDyqVWHJMe1xc3C2dWD3j6DlZ3pCatpSisLLG16rWLXL3XnZfOxcOS2Ne/+LltzbfU1U4e4fSpayfny3cEgNP9+qPnr39aaD+X/jJXE5tDuvQddbOWrqC76+URI4w9k2qPxmjVK3T1PnPp5vOEnQ3V+XtH3U7Mi9eu5+wDViwdt1xjisoSW6teu8hW/9pSXzoXD+vciT2dcvkZFydh3pZO4UF5brZHqMjP+bJjMuteFlRf/KctY+VSO+tWFZ2y4nlhdiwr7wDcuurJCcDr8lffXma4azkgSkdxv7N4QXz/9DTdnN9LrRohGSoP1NWvz+mGbXY/Vi2t9w/rlzpTnb9Xm259cbNyav2AJ+9gdUeq6oWVJR5Y9cG51u/1y+fiYZ0vsce5NtidcF3j+r/3WB2hMwwyPbdT6dja6pg2ZH2n3UapNV/zzlHL6KypSS3TTpOGdFwGfWP3ZdrW1+Xj5Meyk4aZ7D83z7MKsE1C+/H6K9pq0Wcn7o7yG6GQ/hR5/x9vZxfM4SK6a1oxQidVVYqmatfnmGDeuXopX76+r1tqqbn49nLXFaemSu379/umIwY8dQcPHLdMe49n0zZXvXKRR+z1i+fiYZ35M/Y432qvj+4c7E7dyZm48GLKG6d/7LGT+s1O6qJj7dzfLSW+HpxxGYdrjl3Vmf9QJzfGcwqwWUL7Cv1V7HjReSpuofKL4tDU3Rylu6PhmpndTvVfV264FkbopSvvRO0ynMr2w3dfp79EPtptSpWzMaqNmVVLLaReszvKXm26o4qjcVI+H+CE2Y/dwYPHbS9V7lfTfV1/guaF3TLG8dcsMtWs3OsXzsXDOnNir56d4ylYvL5qxWVj/q93nRitfGXMO876DVLnWd/zLWNFzZGrKtYV+q3FIaiOw046PvkBjWcobxuPe6c89O0RKvInouyYzLqXBdWT87RlrFxqZ92qolNWPC/MjqXTErhPs9D+nS/2LQ8v3vmPF/0XzK5Qy9ev6qVnRc2sZG96nZuWpW3RFoX5dXDQz1aO3rpErljqXjFXdKiuoWiMBRdrm84565ZtPG3Al+3gcnlnOnztCQrTobtx87v1hUWestenzsVju2Jinzb2asX1xp0Yq3YKL3dMUvdZ7/MuY2dNTbKwqkbvtLFuxYQPJz9eu+e0a/QjG7Oa1DLtNGmIs7rXN3Zfpm19XT5Ofiw7aZjJ/gPciVlo/9qnnn/589j0YIaLw9Gi80bML/8hXcZqWwAu7nqJvfIeV72NX7q3j7hQf7tsdty9zY5m/c+7jHCw5qRVhTR4fRst8ZRMD1tq7I59d7wnz0Dt+FdG8CMb0eRHNoAHNgvtX/r48/vvx6Z717+3nyT6b0q65LUuVS5kwCu5pcReCSq5WsfU1kvtS/HjTMsYLNecvqqQtlWOKEtqhzSeqfJIV49/0Tj7IYcYrXxm5h1n/QbrT4OTlrGi5shVFesK/dbiEFTHAbgnP/jqPrR3j+/+6fNvfhWb7ku6BJwg+m9V9ZK7N2x2HQOu73YSe2pvv5GWHSOTlE3V+HGuZXQWa160qhBjLC6CQu2QNg9l9fgvPSm7sWpX8+WOyfrT4ORl7KypSRZW1eidNtatmBDghv3zPz1/+RP70N7994++HZtuX7yTHyk634K4NjYur/3VzVUMeA23ktgjBbRCSm/esfbGuxA/zrWMAzUvW9VozTqYqx3Sc5ycSTyz9at5s2M8k3unn5zJ4jLCwZqTVhXS4PVtAPfvN7+afId89/j6p58/+mlsvTX9u/1Jov+NietjcRUb2hevrACXcxuJPQLEPAV0A2dN8461TqltTfyoNdZG7EyWcaimtj21HRGKxmNaPaj+bGNL7ZC+/ORM4glpPV+1jqmtl9qrSznvMgbLNaevKqRtlSMK8EB+9O3Jh+3d43a+Sb5/Fz9J9L95+yvhyEUNeE23kNhbEaBrzxuLjrN+/TLevDk9FM2G2+nad40ramYlx60qE7krrxia/NnGptohfenJmaT2hWer6Nh6+ladBicvo7NY86JVhRhjcREAD6DL511Kz0P7tr9Jvn/vPkn0B+Ayzvc+G0lgr7/JLxrjPn5MBjvV4iEmFK25FCTqHefTDI1ZS/f1ujUPHVcsY1VN59CqioOT9Z2aVbbKSNLzM42S6RBWjlytuN44Pu9LGXXeMZ65SZfqUs67jAM1L1vVaM06AB7FRz/tvys+z+1b+ib54f36FNEfgMvznsvDqOXMlyf2RkDtBs6a5h1rnVLbqYm9NmJnsoxDNbXtqe2YxB7HtHpQ/cgG8JjKb5L/wVdj09X179Anif4AXJf3Xx5GLWe+NLFXA22na88bi46zfv0y/MgGwB0rv0n+ex/GpqsY3pZPEf0BeCXeiHkAKWFm+gRaNEa+HOPmTrV4yLBFay6l3HrH+TRDY9bSfb1uzUPHFctYVdM5tKri4GR9p2aVrTKAh/LRT5+/9qmrhfZ4Bz5e9AdgA7wpAwBcy+9+O/nzb+cO7ZG5jxf9AdgYb9AAAFd0gdAesft40Z/TxHewtX9ODODFvFMDAFzXLLR/54t9y5GGrHiK6M+LvX//lCK7n/0CLse7NgBcVfyeh6vd46f5fAq4NbPQ/uEfPf/zP8Wmtv7MOUn05/zS5+y3/wJLbxT+7QG2xzs4AFzV+3dv069mvPg9fv5LJyX2DepC+zc+sw/t3eO7f1r9sD2exONFfy7qlv5RrFtrPZSP7xbeKWBzvJUDwNXF5+zXuDm+4lSc5Iffev7Sx/ehffywvX/WTpJG5ar6vLv9j6eXPkZf2ga8Km/rADQ/deGCho+0rnHcT/+m3YUTwzlzVr/+aPId8p//gy/9n/9X//I//p/1T9w6MQ6vqHuhbf01IZXDTfIWD/Dg3MO9nj5LX/6z7xMT+8KJ4Zw5s/4J+uCD/9v/4X/5y//3/24X2n/ymX/773//X6VNLdEfVvHKhZvkvR7gwbmHe0390b90ZpfYN6l/Ugr/2f/iP/7Of/37u9DePcoP26M/HM0rF27SVd730/vD5T9FAOB47uHuncS+Gf0TsUL5YfuaXyN/x9IpvLM/l9OZGGan+LRT9fwfSuI8zoba1x4s6EzW0Jiobtaz2vfQXoxjZFuyLllrMdlo9zpOFfkUqwcfRPW8OfUo3y1mC5p3W3fwO/kRKmeBu3DhxJ6/isqXIgCvL90KudO5X+lafPRVeOHEcM4cpz/+Ryo/bH/+3ocx3GNqnnT9hlnzcMpnZ3zcjmZVabRB39p9mTb2lcN/HSzoDePuvhrnyRqahuGzwphu8iodRlvci67lzVP6i/CpbhgmuqQhx+r37951/zFt24mRB7sJjxg8vkx2A0zGncw5tE/3Y9KQDdc3dl+mbX1dPlC+ok4aJpsf7sW5E/vsFTyI1901X0G1ZQA8sOzOqTO+Pcb7c6m4KdqbvpnvNu6as5my0myQyQBje6X7dKKwuJjSS5e3kx+/2cWl2IXWJIOonjenHisvWwuLqUr11R1rDDU7zHtvnt61Nw3dj9nBoXHarzfpO1tKdS82KRZ8vOifzH6N/Dc+8/ybX8Wmh7Nwak1OrKJhEKf6tHdqfNvl0l39++y/lwtiPZOpUls5+9RQVZzK797mTev3Yjdnt3HSIxZfrY2vc7E/03UdP3ixY6ly3znKJqNV1xVTNJ+dfvtsssqq4B6cObGnV8r8tXL11099GVBKF4kHPFPSi2R2deReDef57jTP3pIXP3XpDbXZlvmJ8+5t99/Zy6jfHhNlpX1B9JnO1dWMn+H0Tdk6U92ucHBoMaUXLi9ky+qlnuPX3VeX+hiqanExLfWqhaEWToylc+aIHcxK+7buy7Spr90VDR2zSdJAWcPm9Os7SfSvmv0a+Q//6Pmjn8amR5OfpKPJKdMZTq35yT6onD+pqVHfWyp4/748E+uvjKmh5sBpfMxepDk78/pUOmldXF+l/oTBi8r5nKuP29LBT1uLHVncP7hdZ07s9VdK7S3gorxgOWy8EvSueHK+vvTySLxIHsPwnOdn+fRDpOZbZpwrkw212rHt3dObfJZ463+a/hGw1Jq3RPe3byd14+zjiGsXU3rh8vqW2VtEdN037hbSbZksp6gs9mtUTlyzZjEVtZoVQy0c34ObihWlwWc9YsYzf4B5ff1CTxL91/jeh/vQ/qWPP//o29H+WMrTaH4iDxWNU6Tee/GMOlgws+IUXVrh6Ki9aLzkxspJ++L6KvUnDF7Urjgm9ZpiT3NpY93yXHCDzpzY62pvAXBttetB81J09xYvhNyZuLNpnuet+6m1n4TE62g+wnhDNZ23HCC6l/NPrh2nfpz1wuX1VcUExbzjFMUxnuxCErXzymLMinWLqSiXsWqohaEPblq3g2lhZXHv9Gf8OtLKTxD9T/CT706+Q/4hf6x9fgr0p1B++qTttROqU56b5Utj5mBBbzyPd5ZO0TUn8XF70RyxsvjF2Ws7e/zgxboPDJGZ1dTWM0qD1rfB/ZHYeRTjlWF6Ij7sybl41ebeZPdFtZP9mLOhVtvoX391lcXt6YcRFta1buEvWV525ArZiKlX5eBWJmnUrtiXlYupKJaxbqiFNR3ctG4H0zqWF59bcZQuql/tSaL/y3300/674h85tE/Or+GLyam2eEqV50/x0pg7VLB/KWUrWjxF15zEx+1Fc8TK4hdnr+3s8YMXR6s2xKrjVlvPKG1r7AjcHYmdR1G/6jzsydm8CHOn9vdHndkTf/BsmHTuTWsb/euvrrK4PX3aMhvhwGJKL1hedQEVzV2oTJJqVxyXubWLqZgvY+VQC2s6uGndDtafhJmjn/Gzi3mPF/3P6ze/mvxY+8OF9uwE6/9zdjY0Tr8kbcy3HTwDFwtisnxzalo6RRdXGI7bi+aclcUvrq+2s8cPXiy7GCLqDu7D0sFvzAV36tyXk/QKmr2AFt/vQvHyTZ16ZcdhW7yux46dfWGxjF1VZfxqXW3aQdav0yjiZqw5Oe9SOtUbV23uVf7+Vbzx1c+GfZfUoVbb6F9/dZXF7emHLdmGNYspvWB5qebQBAsLqUySalccl7m1i6mYL2PlUAtrOrhp3Q5Wjs9E2t5LNYeP0tmkaU8Q/S/qd7+dhPbvfLFveRzjadOfDsXJ0Dj/Bn3HaYdDZ+BiQW2qFafomrP4qL1oDlhZ/OLktZ09ZvDG0ZoPUdu56jT14ULa2NoKd+Z8l5Z46Qxmr5/Fl1yvK1j564Lj615Upk39FMN/VZdxnl8XnGqz3Yi55mXckvQkZs/qo6if4zyCeOfKnv3m2ZA2TF4htdpG//qrqyxuTp+2jAOksoOLKTWq1iwv5pwXFZoLqUzSGLM5xM7axVTMl7FyqIU1Hdy0bgfrT0KIgfLNC9OewzDdKaL/Nc1C+9c+9fzLn8em+5fOm17t3Imtxab+7JmfO4tnYG+poDZRajtwijaLsl/eUBu8V9mL5suisvjFl1Cl/qjBFwbIh6jtWmqbTVMbbi8Gri3tXaML3KwzX2bi5TN7dS2/5EbxpnDg1wUPYsDmX2isLiPGf8mvCy7fFlLdwX1js+L5f7wncHw9zE9p7tH7p6fpKT6c9/tnv3U21N5Ka7WN/vVXV1ncmj5tGPunqsOLKTWqVi1v5Xt8cyG1SdYel8LKxVQUU64bamFNS8s9YgfrpUnqMN244iidoJ/mJNH/tcxC+5c+3v9quscQJ0frDB4352dKf66V5Utn4GCxIG3czdJP++bNqlM09ZzUFSf36r0oeo5qi5+tue+8K6jVHzV4MXr39XDf3bcOhk2zqn6K6nGrTpEZj1BWMTR1gaBYLty2c19vFl7A7ZdcEi+88l2h7J5aFoaszTi+sKvvB/XifWl6C6hNl/qXq2Zz0pM6exZrp0rNeJ4k1ec7L2meEONpuFOZejpXWTCOkW3JurT2pZi5V1/noQVwa7pndPo0Dk/xvimdHOXZEGfCpG9qm9Y2+qfS+QlUFrem79v3vdcupvSi5aWva3PkH+O0dqE6Sa0tpjmwL+sWU1FOuWqo5m4tbjpmB+tPQpK2TTemtvq0xxnGPkX03478r751jwf5sfbhhKqfOKM4gUbz4vGU3JudVwcLepOiYXvWcuBEnS2wXn1gL2abdwXF4rPRp326DZ1inL7+lMFnG1OPaMsWP6kaumct/ZLmU0zmyM0qW2Vw4zaX2GuvtaF/viENuPCyrM3YGL++uFlxsYLMwcXw6tJzlJxwcg5nw66k1mNa0Rh0KMpOlHSSTcuGnllLrDzr1bWMP0KS6vK505DlydgPk7fG1JXSwwvgBg1P4/Qsmj6n6XneN3VnyHAWzNr7E6f2SUjjxEu9s9NpUBbvzseiddJ35WJKZ1peVjk05R/jNKZoTDLbk/7rysdQVWsWU1Fbxpqh5ivtCsbyhU1H7GBtYTuzYfrVrfwAs6Ef7iTRf7N+9g/PX/7EPrR3XwJwR24isactWf+DA9YKGuPXx5oWFwvIpY1Lq2ET6k/UipNz6JhXTH4Eo9OPcWjYYpDBu7d5U9+pfAGkoaZ90750td3GSY9i3k5fXA67GyK+7q1fADcmPd075bM8Ps2hK4ifp5z0HPplLd3X036d4USZzTfOWC/en4zlZFOHFhNlmXMsrzfrkc/V6tWYJJluzA9DNmnLwmJKxfIm5YeHmvbvCuLEWN60YgdnU3cqs0+Khu1ZS6W+LuqPF/1vwq8/6n+UPSX2r3zysX4RHcC9u53Enm84OGCtoDF+faxpcapp3B201822VJ/qg+fSWNKs6TcXT//srChO4YqhpjpJef6l4Tvz+nJ3WlPPVtg5ZgFwRuXJCC/Uv2edJPrfoi60f+njEdr/5vPRCMDtu53Ennc/OGCtoDF+faxpcfqqMWHauLAYNuLkkzPVDMrCbGNhPIGGmgN5ZKkmzZFtbJ6RqTJrbw5bvB6OWgCcUXEywon6d6rjRec78MNvRWLvHg/3d9oB7tYtJPZhw6T3wQFrBY3x62PNitOX9Rn7Adxq3oLqU33wXEpSWcif7nRqLPdvnHoTi+MU519zxPnutIedD3HcAuCMmuczHKN/lzpGdLsz3/jMPrT/4KvRCMAtu4HE3rcfO2CtoDF+fayiOJWVc/aFbjRvQ/WpPnguZeIkGIw9UtvyKdA6tXOL4xQDNEec70579+ZDHLcAOCPnF2fRv4cdEqV3LP+Tb1/4mB9oB7gDm0vsvfzGrW8teh4csFbQuCmsj1UpHteXN/adD+0XW1F9qg+eS3Opw+48iNNicYAX16SN2bbUUJzM5e40C4stxy0Azqh9msIR+rewmtj8OLqU/s3P9on9rz8XLQDcsvNdycYgs9PfflUbG3Y3bREdklmHybbBrGDdMoboUYyVhqoXh9lGEeaWpCdv9pxVG6fePz1V+ownXpwSB0Y4HEjidKyO088x6d0csNidZmWx4agFwHnE6yfjROMF4iwaRNPD+vVH8R8A3LgNXdKa0QLOokizvWrjVFcy3T702TVF0q2cue/e7bqlaSo12Z9DSjXlWvoJZj2bL5Zyd+pBPFqnQxyxAAAA4Aokdh5GmWY71capoSQ7MfuvJ+fpGH+zUYamt0/7OD7G4bxjccqPA+VFfb9qhp4tIqntToy6r+6Kui9iQb3dptULAAAArkBi5wFk4TTpT7NqY9WYY0O1bk3NfMpVRfOwXCw7CmYLmI0+2Zp6RFMZxg8sAAAAuBaJHQAAALZIYgcAAIAt2kZiL77RV3AHAADgwW3oM3YAblv6Xim//AAA4EwkdgBeLP9WKYkdYLV45/zAPTlQ590BgPNo/gUCAApDTp+IDQAZbw0AnEn6pH2e2Lsg73eTAOwN8bwiNgNkvDUAcCaVxO7PgADs9W+SbVEEkPHWAMCZSOwADf3b46KoA5jy7gDAmUjsAIX+jXFR1AHUeI8A4EwkdoBM/5a4KOoA2rxTADyCFKZH9QSd0nVm/jvkpsOUg0wTezHcKO84KypnBLhB8Z7WFnUAh3i/ALh3QyreZeHKB+FRkiXpCNJ51XSU6jCTtvfv3nXDpYGq/0IwVGdbUu9qKcCt6N/IFkUdwDreNQDu3Cxq9w1vJ7G4KBi8e5s39XF6VlJm9rKlmdhT+3TDQroH2Lz+TW1R1AEcw3sHwJ1LObqM5GHIyQdicj9EUVIG7GMS+/tyQokduE39W9+iqAM4nncQgHsXkb1XxvZh44rA3nJiYq+R2IEb1L/vtUURwKm8jwA8gEnmzjPxmpScalqf0WdOSezFvwZI7MCNiHettqgDeAFvJQCPIg/HY6xek9hTvxVJ+sjEvl9P6rJmLQAbkN66FkQdwIt5QwF4KGNMjmCcUvLyB+hragbHJPYYNK+W2IHNG964lkQdwJl4WwG4c++fnqZZewjWYzBeE5Mj5R+M7Eck9gjs69I9wOvr37MWRR3AWXlzAbhzXY6eZu0hWO+bUs6uBOX973OPfF2pefcuG/qIxJ5Kp7XNhQC8puHtaknUAVyAtxiAOzcE4SwH919PY3HE57xxnrQjs+cRe2h6+5T9mbY0TuWfB6YDDQWz9n6wN2/q6R7glfTvU4uiDuBivNEA3LsxbYd6JI7UPqoVLYwz6z3ZON3WbYjP7ifDDfVZS21+gKuJ96K2qAO4MG83AAAQIpG3RR3AVXjTAQAAWR3YIm89AAA8tEjkbVEHcHXegAAAeFCRyNuiDuCVeBsCAODhRCJvizqAV+XNCACABxKJvC3qADbAWxIAAA8hEnlb1AFshjcmAADuXCTytqgD2BhvTwAA3K1I5G1RB7BJ3qQAALhDkcjbog5gw7xVAQBwVyKRt0UdwOZ5wwIA4E5EIm+LOoAb4W0LAICbF4m8LeoAboo3LwAAblgk8raoA7hB3sIAALhVEcobogjgZnkjAwDg9kQob4s6gFvmvQwAgFsSibwt6gBun3c0AABuQyTytqgDuBfe1wAA2LpI5G1RB3BfvLsBALBdkcjbog7gHnmPAwBgiyKRt0UdwP3yTgcAwLZEIm+LOoB75/0OAICtiETeFnUAj8G7HgAAry8SeVvUATwS730AALymSORtUQfweLwDAgDwOiKRt0UdwKPyPggAwLVFIm+LOoDH5t0QAIDriUTeFnUASOwAAFxHJPK2qANg5J0RAIDLikTeFnUATHl/BADgUiKRt0UdADXeJQEAOL9I5G1RB0Cb90oAAM4pEnlb1AFwiHdMAADOIxJ5W9QBsI73TQAAXioSeVvUAXAM754AADXvv//8lU8+f/4P+kf3H3/z+eef/UNsIhOJvC3qADie91AAgJpdXM8fX/7E83f/9Pk3v4qahxehvCGKADiVd1IAgJoffHUe13ePLrf/6NtR9qgilLdFHQAv4M0UAOCQX/z4+TtfnH/q/vVPP3/00yh4JJHI26IOgBfzlgoAsNqPvt1/wJ7n9i7J//qj2HrvIpG3RR0AZ+KNFQDgGL/5Vf+j7Hlo/8LH7j63RyJvizoAzsrbKwDA8T76af9d8bPc/jeff/7nf4qCexGJvC3qALgAb7IAAKf6yXef//w/THJ79/jwj/rfWvfLn0fNzYpE3hZ1AFyMt1oAgJep5vbu8Vd/8vzDbz3/7rdRdjsikbdFHQAX5g0XAOAc/vmf+u+K/9LH57m9a7mdn3KPRN4WdQBchbddAIDz+d1v+98n/1d/Ms/tm//tdJHI26IOgCvy5gsAcAFdOP/BV/ufad98bo9E3hZ1AFydt2AAgEsqf8p9M7k9Enlb1AHwSrwRAwBcXjW3v95fg4tE3hZ1ALwqb8cAANeygb8GF4m8LeoA2ABvygAA1/VKfw0uEnlb1AGwGd6aAQBew8Jfg/vGZ/pP3X/2D1H5YpHI26IOgI3xBg0A8Hpafw1u9/jap/pfU9fVnPRt85HI26IOgE3yNg0AsAHVvwY3e3z5E8/f/Gz/nfMrfs98JPK2qANgw7xZAwBsyUc/7TP533z+QHr/8//w/N0/rf6q+UjkbVEHwOZ5ywYA2Krf/Or5/fefv/fh89c/3f81uFloT48vfbzf+p0vdmV/+G/+9b/7vX8RubwmhgXgRnjjBgC4Eb/4cf+d81/71Dy0F4+ffObffv3/+p/9V//Ff/Kf/sv/SFYHuF3evgEAbs1vftX/Lrq//lz/k+1FXJ8/uoTf+P55ADZOYgcAuFUffPDBv//9f/WH/+Zf/7d/+Htf+b/8r7/33/znP/nMv50n9t3jSx/vfyn99z7sv9N+xe+uA+DVSewAALcnfa97y7/7vX/x/Pd/2f98+yy0548vf6L//Xbn+6vvAJydxA4AcEsilLdFXbLm++dFd4CtktgBAG5DJPK2qGv553/q/27cd77Y/OxddAfYGIkdAGDrIpG3Rd1RfvHjPr1/5ZPz3N49RHeAbZDYAQC2KxJ5W9S9hOgOsFUSOwDAFkUib4u6MxLdATZGYgcA2JZI5G1RdznL0f27f/r8u99GJQCXJLEDAGxFJPK2qLuaVnT/8I/632MHwIVJ7AAAry8SeVvUvZZqdPdhO8CFSewAAK8pEnlb1G3ED7/1/KWP70O7D9sBLkliBwB4HZHI26Jua3790fNf/ck+tHeP73yxbwTg3CR2AIBri0TeFnVbNvuw/Qsfk9sBzk5iBwC4nkjkbVF3E8oP2+V2gLOS2AEAriESeVvU3Zyf/cPz1z8ttwNcgsQOAHBZkcjbou6mVXP733z++Zc/jwIAjiexAwBcSiTytqi7G2Vu7x7f+IzfJw9wGokdAOD8IpG3Rd1dqub2r33q+UffjgIA1pHYAQDOKRJ5W9TdvS63f+Mz89z+lU8+//1fPv/mV1EDwCKJHQDgPCKRt0XdQ/nlz/ufZv/Cxya5/Usf96vpANaQ2AEAXioSeVvUPazf/Kr/aP0rn5zkdr9SHuAQiR0A4HSRyNuijuRH3+5/oF1uB1jHVQQA4EQRyhuiiNJD/An3nz3/2R8/+4cI4GVcSwAAjhahvC3qWFDN7d/87PMPv3X7v5qui+vdHp01sf/dHz9//nPx38DDcDkBADhCJPK2qGOl6p+C6x5f+1T/o+8f/TTKbswZE/vfZodFYoeH46ICALBKJPK2qOMErdzePb7yyf4b5t9/Pypvw1kS+5jV/+5vh9G6h8QOD8elBQDggEjkbVHHC3300/5z9dmvpts9vvTx/g/F/fLnUbxpZ/+u+JTeJXZ4OC4wAABNkcjboo7z+s2v+p9m/+Zn+5Seh/b06Np/8eOorProL6JyV/XNXd+/jZaQonVWmfz4c33jn/1FfNkpx8y/Xz0ftv+B87E9f+Sj9fJvdy8XNiOxw4NymQEAqIhE3hZ1XNr77/ffFT/7W+7d4+uffv7Jd6Mm14XtLhuniP53P4uknWJ2ytK75JxH62oO31XmY+6HGvNzGqebq/ez5x93/3HoM/Z+qCx+p38gWPpMXmKHB+ViAwAwEYm8Leq4sl/8uP90vQ+u2ePDP+o/jS+lFP3NIWnvlZ+or/6MvbNL5l3ejnw+SMWTD8kXE3vXfTZyJ0J7K5NL7PCgXHIAAEIk8rao4xX98uf9T7N/4WNDgh0fX/5E/wPw+d+ES+m6FYz36bqR2NMn89XEXhYfldjzz/xndt8XUCGxw4Ny4QEAkNVvTRfOv/dhH9T7HDs+0q+mS38QbvKd6rkh+u6j+PGJvfyB86MSex/LG5+9p3HKf2XoSezwoFx+AICHFom8LerYoN/9tv+W+PJH3L/2qef/3/+p/49KYk9Zehd9j0/s5ZhHJPbZ7FNp0vpWiR0elIsQAPCgIpG3RR3b95Pv1v8m3P/0/4yP3PeGzPySz9hflNhT8G58xl6dNEjs8KBcigCAhxOJvC3quC3//E/Pf/25+Y+4d48uzP/wW/0H8r0hS+/T9ZUTe2O6JE06GWdHYocH5YIEADyQSORtUcft+s2vnv/xG8//3//9EHGzx5c+3uf5H/13/X/ngTn9vrcrJfb2D8N3+nEaH79L7PCoXJYAgIcQibwt6rgPKRj/+WcqH7n/f/6Pzz/4av8755NKYh8/Cb9EYo/sXX7MPnQpBw8SOzwoFycA4M5FIm+LOu5JStfd43/8H/uP3D/8o/gyf/zVn/TfLf+j/1f/3/tw3mXjP37+8fAZe3rsNh2R2Is/1fbRX+wL0gf4s6G6+uoH70maovkJPHC3XKIAgLsVibwt6rg/u3S9i+7d40t/3H9v/O7LaPz48//077OW9Dn29AfOIzBnj9S+y967xz6Ej5+lp0cX+z+aRv0U6XeP+Ufug3zxs0e1Hrg7LlQAwB2KRN4Wddyr1ufh6Q/C/dWfTNJvenSNP/p2lAFsg8sVAHBXIpG3RR33rZXYd3758/6n2cu/5d61dO2/+VWUAbwqFy0A4E5EIm+LOh7BwcS+87N/eP7mZyehvXt84WP9L5b/yXejBuCVuHQBADcvEnlb1PE41if25Jc/f/7OF+s/5d61/9ovfANehwsYAHDDIpG3RR2P5tjEnvzut/VfLP+Fj8ntwKtwGQMAblWE8oYo4tGUv9d99mfV1/jFj/uIPvsp9y63//BbUQBwFS5mAMDtiVDeFnXwQj/57vOf/4dJbge4ItczAOCWRCJvizo4o11u/8ZnogXgKlzVAIDbEIm8LeoA4F64tgEAWxeJvC3qAOC+uMIBANsVibwt6gDgHrnOAQBbFIm8LeoA4H652gEA2xKJvC3qAODeueYBAFsRibwt6gDgMbjyAQCvLxJ5W9QBwCNx/QMAXlMk8raoA4DH4yoIALyOSORtUQcAj8q1EAC4tkjkbVEHAI/NFREAuJ5I5G1RBwBI7ADAdUQib4s6AGDk6ggAXFYk8raoAwCmXCMBgEuJRN4WdQBAjSslAHB+kcjbog4AaHO9BADOKRJ5W9QBAIe4agIA5xGJvC3qAIB1XDsBgJeKRN4WdQDAMVxBAYDTRSJvizoA4HiuowDAiSKUN0QRAHAqV1MA4GgRytuiDgB4ARdUAOAIkcjbog4AeDGXVQBglUjkbVEHAJyJiysAcEAk8raoAwDOyiUWAGiKRN4WdQDABbjQAgAVkcjbog4AuBiXWwBgIhJ5W9QBABfmogsAhEjkbVEHAFyFSy8AIKsDwBa5AAPAQ4tE3hZ1AMDVuQwDwIOKRN4WdQDAK3ExBoCHE4m8LeoAgFflkgwADyQSeVvUAQAb4MIMAA8hEnlb1AEAm+HyDAB3LhJ5W9QBABvjIg0AdysSeVvUAQCb5FINAHcoEnlb1AEAG+aCDQB3JRJ5W9QBAJvnsg0AdyISeVvUAQA3wsUbAG5eJPK2qAMAbopLOADcsEjkbVEHANwgF3IAuFURyhuiCAC4WS7nAHB7IpS3RR0AcMtc0QHglkQib4s6AOD2ua4DwG2IRN4WdQDAvXB1B4Cti0TeFnUAwH1xjQeA7YpE3hZ1AMA9cqUHgC2KRN4WdQDA/XK9B4BtiUTeFnUAwL1z1QeArYhE3hZ1AMBjcO0HgNcXibwt6gCAR+IOAABeUyTytqgDAB6P+wAAeB2RyNuiDgB4VO4GAOAVRChviCIA4LG5JwCAVxDRvBCbAQAkdgB4FRHQM7EBAGDk/gAAXkckdVkdAGhwlwAAAABbJLEDAADAFknsAAAAsEUSOwBw4z7/B/EAgPsisQMAt2wX14V2AO6OxA4A3DKJHYD7JbEDALdMYgfgfknsAMAtk9gBuF8SOwBw48R1AO6UxA4AAABbJLEDAADAFknsAAAAsEUSOwAAAGyRxA4AAABbJLEDAADAFknsAAAAsEUSOwAAAGyRxA4AAABbJLEDAADAFknsAAAAsEUSOwAAAGyRxA4AAABbJLEDAADAFknsAAAAsEUSOwAAAGyRxA4AAABbJLEDAADAFknsAAAAsEUSOwAAAGyRxA4AAABbJLEDsBnvn9588MEHb9/FlwAAj01iB2AD3r3tonqQ2AEABhI7AFuRPmKX2AEAEokdgM1In7TPE3sX5N88vY8vAAAeh8QOwGZUEnv63H1biX1Yk+8EAAAuTmIHYDO2ntj9tD0AcFUSOwCbsd3EHln9zdO79LP2EjsAcAUSOwCbcRvfFV9ZJQDAJUjsAPcn/+btRtrNS1bF4RVjRrrOlKl2ed5pFi6GG+UdZ0XXyNHTVQIAXIzEDnBfhgS7S5O1cDmtWJM/D4+ZSrIkHUE6r1ox76Tt/bt33XBpoOq/EAzV2ZbUu1p6VtUDAABwfhI7wF2ZxeK+4e0kwvZxcxY2DyXQg2MWBYN3b/OmVfNWVtJK7Kl9uqFVu5cmaCl2oe7Q8QIAOBOJHeCuRCRtxcl+c5FoDwXdA2MO3ZdicmflvJUs3Frc+/flhAcTe63T8SqrBAC4BIkd4L5EvO6VmTLbWFgIuofHXOjcWztvqluV2GuOqX2ByioBAC5BYge4O5N8nOfXlGhPipoHxlxOyavnPSWxT1bWk9gBgHshsQPcpzzIjuEytZ2eaGtjrknsq+etZOGl8ffrSV0OriUVNK0M4ZVVAgBcgsQOcMfGSBshNgLry7LmCWOunveYxD6m76y6WXteEjsAcCUSO8Bdef/0NE2SQ7wcQ2yk7SPD5vKYa2Ly2nkrWbg1fAT2VbVnVlklAMAlSOwAd6VLk9MoOcTLXVPk3EqoffeumUAPjBkJtjLm/lezr5w3jTSZrJXCU+m0trmQ86qs8ga8//7z1z/9/MNvxZcAwC2Q2AHuypAms8zafz2JsJGd88A5NL19av7ls4NjRoadNM6T9qp50zjTLJzaJgMNBbP2frA3b6ZzXkZlZ2/Blz/x/Pk/eP7Cx+JLAOAWSOwA92VMxqGaK9fU5FbVR5Ad1YoWxpn1nmycbus2xGf3k+GG+qylNv9LzNaeu41P27u4nh4AwO2Q2AHgAUjsAHCDJHYAeAASOwDcIIkdAB7ALrF3j6988vkfvxHtAMCGSewA8ADyxJ4e3/swNnXef7+P8d3DL5MHgC2R2AG4kvhFbR+49LyGWVxPj1/8OLZ2WT21nOuXyf/mV/2/CPhXAAB4GbdNAFxDhPVRtHI1u5T+u9/2f5g9/fc3PhNbf/DVfcHL/eM3nr/08f2A/qQcAJzKPRMA1xBJfRStXM0uP3d+8ePJl0nZcpouru+GSo+/+XxsAgCO5J4JgGuIpD6KVq5ml5+rX3bylpf8WPuXPxHjrOze1Xz9075zHgCq3DMBcA2R1EfRytXsAvnssZO37FL3Cd/Qvhvnd7+Nlpn333/+79/sy9Kjm6hVDwAPzD0TANcQSX0UrVzNLCHvHjt5y+6/T/iG9l3flq+Mv+Uuf3zzs7F15offmtef9sk/ANwm90wAXEMk9VG0cjV56N098kC+a5z997EO9s1/y93uUX7AXmb13eMLHxPaAXgQ7pkAuIZI6qNo5WryuFu1K5j997HW9N3V7B4z5a+vmz38/nkAHoN7JgCuIZL6KFq5mjzu/uCr0ZjbbZ3997HW9N3VpEf5vfe7H6TvHt/87P4T+PP+FToA2Dz3TABcQyT1UbRyNbug2z2q31W+25r/9wnffN4NnvpW/10g2Y2fHrMfTc8/YC+/W363CQAegHsmAK4hkvooWu/PL378/J0vNn8A+7THWX7X2mzM7jEbdpe08//u/qPLz7n0h9/S1urCut3f9W1JBfkjL959wF79dXS7LgDwACR2AK4hkvooWu9Dl1rPG9HLx0L6XWkXwvNHPmz6hvP0DeqzXw6Xf1o+29NyYb/77X6u1sfsu+75I3n//X1L9e+97bYCwAOQ2AFYLf981eOajxP+ytrMLpDnaXxh2LysS+DVnyTvHtURDn7Mvuu+O512H6fnP8FetbwVAO6LxA7AauL6wUcXOLsQ+7N/iCN207qU3gXpbqf++nPRslLXcXdAqnZbv/dh/7/f+Ezfpfz3oB9+q2/8+qf778wvv5EBAB6AxA7AarPPVz12j/z3md+ZX38U/7HSLHhX5Vu78U/43o3qj7gDwN2R2AG4hvj59VG0cn/yb2vvHlW7H3RPZnH9f/gvJ1+Wjzv+9xEAmHLPBMA1RFIfRSv3Z5fG06Nq90P1+Zfp0TV2afyvP7dvmT0WfvYeAO6OeyYAriGS+ihauT+z+P1yXYD/qz+JAb9Q+0vyAHC/3DMBcA2R1EfRCmt0oX330X0K7V//tOgOwCNwzwTANURSH0UrrFT+1sMuugPAvXPPBMA1RFIfRSust/sz77sHANw790wAXEMk9VG0wlF+8t3nP/8PEdf9CjoAHoB7JgCuIZL6KFoBAGhzzwTANURSH0UrAABt7pkAuIZI6qNoBQCgzT0TANcQSX0UrQAAtLlnAuAaIqmPohUAgDb3TABcQyT1UbQCANDmngmAa4ikPopWAADa3DMBcCUR1sV1AIB13DYBAADAFknsAAAAsEUSOwAAAGyRxA4AAABbJLEDXMz7pzcffPDB23fx5SVcYYqrefe2/610b57ex9dzafugXbRB9/QcAQDXJbEDXEAWLi8V1a4wxdWkTJtUw/iws8NeDqVv3r59uoVdvqfnCAB4DRI7wKVEDr1kVLvCFMdJCzrtI/CUb8u+ffsN593NPUcAwO2Q2AEuJkXQi0a1K0xxjPFD5ZMWVE/7Q+tNfRf83MaeIwDghkjsABfzeIn9JR+x1zufNbAPg139YEnsAMCpJHaAi3m8xP4i1cQ+7OCLE3s6TInEDgDcDIkd4GIk9qPUEns1xR8jsvqbp3fDSB2JHQC4GRI7wMVI7Ee5SGLPvdLBktgBgFNJ7AAtKS1mZqFrtr2MZEtR7dDgvdR/VB2nNcW6tUUSzornhfkS1uTmNFR1qaXiGPR2s0z3fjRsHjvu5tnXLk3dOlgt0xVMdj9WUD9cswN17LQAACOJHaBiCGRZ8JoHtCGEZdurSa0V1Q4N3hu6Zi1pqGKG2hRD08LaYrpe39h9mbb1dfn4Q91+5MpME2l70q7aqc7WGxvfvesHSc15Yd/zzdPTbqeyZcYYk+rcoV3ITfc+77lbaScbK9v/2QKOmRYAICexA8xNw9ro3duxqRYMU9uKqHZo8F7fr4ydEQmnfedTHLu2Lvru2t9n/z1sny1zPldFTL9Y0+nLyh2srbO69k60v30b/9wQludfsQOjYaC8cnJwmhOlGeqHes20AAATEjvA1JDFyoiYef++3BgJ8lBUOzx41FTzXSUPzqc4cm2tINlvLZZZHWem3OVS6yDUxm/NmdorG5YWsGZxIQ5Pszbmn2+vLveIaQEAJiR2gIkhXlXi5AHrotqawZdq0oD5xmKKioW1Lc5Tt7z8FesZSmqj1NZZXXun1b4w/KrF7WSHoNYhzV9sWjjU66YFAMhJ7AC5dhKsyFJdciCqrRk81TTiXZkTm2nw2LXlFtewbGnYpD147fDU2nqt9sXFH17cxOQQzqZKsxRjVZd15LQAADsSO0CunQSn9mkuJbFVUW3N4KlPo6YcoJYGT1pbbnENy5aGTdoVtXW2Dln7UA5b6ms/vLhS6pNkPdP8xVjVZZ0yLQBAT2IHyDWS2FQUlQnuQFRbM/hiTdqYbyvS4Klry61ZZ8PhdFpdzaC2pVV9YJT6Ak6OzqljPl+avxiruqyTpwUAHp7EDjDRjoI7tbS2LqqtGLw6+qgfcNp7PsXpa8ulja2tSxaHTZoHobahVbw8yOJurdqr909P07KhbzZffazqso6YFgBgQmIHmEkBqxYG4/ewp4JpBKt2qkS1g4N3auP3+jg47zmfota3Oue841RKnrV1pj+T3rQ8bBKDz4qidTZnNQJ3ltqbs69ZXOhKp3VD36ypNlZ9F46ZFgBgQmIHKKSINQlek4SYtu8299vevKkkyGpUOzR4rxb9+n5l6iumeNHaMuMSsoqh6e1T5e/H7R0aNonB90vqunVfpM6DcVOqnK29My5vuq1vbc8dw5eDVQy1WWX/9bRjGm3f1n395undblnZplR56JgAAJQkdoCqFLN2ZjFvHxg7w7aspft61nvef3nwMCuaJ77mFIfWNtk+qM8/G6ldlhzY5cJk8LRz0RR7WgyYD5lK53tTm3K2E7mlED3rdnjkVbtw4JgAAExJ7ADcnpSMBWAA4L5J7ADcHokdAHgEEjsAt0diBwAegcQOwO2R2AGARyCxA3B7JHYA4BFI7ADclPJ3yAvuAMCdktgBAABgiyR2AAAA2CKJHQAAALZIYgcAAIAtktgBAABgiyR2AAAA2CKJHeABpL+IduW/gpb+Zvrbd/ElAABHktgB7lqKzcnVEnv+J9MldgCAU0nsAA/gNT5jj38rkNgvKh3lK3/3BABwLRI7wAN4lVyX/png5hN7d+y2G4jH72aYHeVNrxkAWE9iB3gAEvuJtv4Rdm19W18zALCexA7wACT2E91i+pXYAeB+SOwAD0BiP5HEDgC8Jokd4AFI7CeS2AGA1ySxA5TG3+eVVLNPXtIMRyk7ZSrxdTpXWTCOkW3JurTycDFzr77OQwtYsHwQ0tbqgAsdT9vfsxzqqeoh7O0WPIwXX2XVk4Fno0wn3W3cNdd3tTV4J20aW2ez7c0O8sLxBwC2RGIHmBpCzyxBTWPStKJaEkVZGIosNSkbemYtkaOyXl3Lm6enbIJ87jRkGbj6YfLWmLpSengBTflCOqlnNlSn1nagY/fV8fs7tGfNqW468TBN1pKmXdrT9+/eddsac8YUvX5b92Uq6YfdFQ9zZF3TnPuGd2+7/04jDSvrt8cSs9K+IPpMF5NqkvEILa05DFv3RyKNkh0ZAGBLJHaAiVmg6RveTrJPlqtGReopBhm8e5s39Z3KVBUxbNJ3l8C6jZMexbydvrgcdjdEfN1bv4BSXzUrKRdTW96ajkfv73zEvjJv6vuduKe1A7cT63nKzpDd2ZI6TnvWBhvb3j29mS95GHryV9pSa94S00x2YmnN/QizPY6pFg8DAPBKJHaAiZRfmgGm31xkoVlEGr6sB6adoaY6STOVlfVl1mpNPVth55gFzK05CJ1yees6poZZ1976/c29ZE8re5VJ/euDv39fdqkNNu7sbIr60JUBymOysOa+uGhf3EUA4HVJ7ABTY1bqlEks21gYM89QcyAALdWkObKNEepaq8nam8MWqeyoBcyk7XV5r/ryGrKOZ9jfzFJNGnBpgMU4e7j7VG2wxgTFrg4qxZXC5ppTbd36vQAArkhiByhMkk0eZVIWKqNkrpmXMovjpI3Z1gMJbF5YG3Y+xHELmFrsm1u/vKn5YnfqA57zUBcWp5ivp2pyMvWmgzUmqA9dKa4Uttac2g8sFwDYFIkdoC5PWmPKSW2N/BYWM15YHKcYoDniPK1V0luYD3HcAqbWHIRBfXmHO67e3wMLHbxkTzuLFfP1zKXtvVRTG6wxQX3oSnGlsLXmxUMBAGySxA6wYMxcEXNSFlrIaJ0X16SN2bZWAivSWrOw2HLcAqYW++bqyzvccb7YnVMGXKxJG5f6N9fSm69nIibON9cGa0xQH7pSXClsrTlWtLS7AMDGSOwAE++fnqaJZohEY/xJ+Wg59LQCU24pPPVzTHo3ByzSWrOy2HDUAmbWHIResbyVHc+wv5mX7OmBGYr1ZGrT1gZrTFAfulJcKWyuOdU2FgwAbJHEDjDRpZppohlizq4pglgtDr3bdUvJqFKT/QLxVnrqJ5j1PJDA8iFiebNRo3U6xBELmIvxaivaH4SF5R3omKpW7W80VWpPO9SF5lp6lfXs1CatLbYxQX3oSnGlsL3mtKW2afLEAQCbIbEDTAwJKIs0/deThBOpJw9JQ9Pbp+zveaUcNelY5KhxoLyo71ckwKLnqJLWxlH31V1R90UsqLfbtHoBpbHrioNQXd5ix1Szcn+jcVJeDDDOesKepuH3Hbuhdr2q6xnNOvZLePOm3LHGztaHrhTXChfWnEaYdBiaJk8cALAZEjvA1JhpQpGlemtqIjftrCqaR7TZ5l3BbAGz0SdbU49omo9/cAELFg5Csez28g50XLW/827TjaNT93Tarxu7N19Pbc5J0bA9a+m+ru9sY1fL4rfzlmwJtTXHpsXjDwBsjMQOAAAAWySxAwAAwBZJ7AAAALBFEjsAAABskcQOAAAAWySxAwAAwBZJ7AAAALBFEjsAAABskcQOAAAAWySxAwAAwBZJ7AAAALBFEjsAAABskcQOAHfq/dObDz744O27+BIAuDUSOwDcnXdvu6geJHYAuFkSO8CNS5+jvnl6H19zd059ilM/iR0AbpfEDnDbxg9TxbK7dfpTnHo6NQDgZknsALfNR+x37/SnWGIHgBsnsQPAnZLYAeDGSewAcKckdgC4cRI7ANwpiR0AbpzEDjDT+AXbKfzkP0wchXllKhpUY9LYJayJUsOQMW3Wfd81NdaHms1XK8uWXPlR6YOzh0MTzbbXVzuTr6zxY9zLiw+TudPMXb9sCVEwX1Qa/Nh5x9my0bLq2RzFYdvLh01l8/UV3cuCNHPZ3lnYBQBgMyR2gL08AdUT1y7bdG1vnp6yQDT0jU5pnGkOGgbJmtKgS1kpW01f1n2Zqvuew39l6ypT2dA7Gz5Gy+uGpn1DGm78+uDso0MTDcNm29M0kyFK06VNV5ZMK6ol5dqibF8Zix1knXdl5UIX5+2+OuqsGOqn46cBx9ZsIfn6YkPWd9ptlFonHTuLuwAAbInEDjATIW6eYGqRaJfBuo2TLfMQFGNOaioBriaG6nLgrvJ99t/15Q6NRQZ79zZv6geelcyXvXL2hYlO3PFi2MmknTWLr68tVjQdvGjqpQGn61w9b9+v2zLpXVR2LdXBZsemWF80TMp2s8bXg3LG1FadddYIAGyAxA4w08hvtUQUpWXxPAK9fz8JUoNqxCqloRbyVBm3hpEPDNz3KkrKJS3PfniiE3c8pm3t85rFt9ZWmT01FbOVlesOWgxXDpj2KmudHZ3oWC563nH1US1mXLkLAMBGSOwAM5GbDue3ZmktKZVWxqQ01EJZMdfQcGDc1Kku77o4+5qJKtbseLa+1tGtG4dtrq0ye+NpLCrXzNtpDDf2b50V0a225uWOSWW/Kh1X7gIAsBESO8DM2vzWqaakXjNiFYnpYEw6mNbmBc1FZVLNwqCjpdnXTLRz6o6HvHrN4ts1lVWnpqJ6Xrlm3l5lhuTwwWwclWbHQ0d13nHtLgAAGyGxA8xEdprHmloOOyqb7dNVam92nmqmtVE9lS2Pm/ocnHt59pU7cOqOD/Z996tYs/j2uiuzp6aiel65Zt5ec/8OLaq6qVfrmNp6qb0667zj2l0AADZCYgeYWZnfeuuzWQxaNh1MT7W0NjEvaKx/Yk3NYGn2VYOcvuN7aRG7Lut3sDZHZUtjwHnlmnl7zblbBzP2rz1w0TGWUjbNZp13XLsLAMBGSOwAc/VgVUtEq7NZLSk1O0/VV5NpxLnlgVOnpWGTxdlXTHTijr9/eppOOaxj7LJm8c1Jahvqe1lUrjxozanr06wYdd4xzTDtUp21mHHlLgAAGyGxA8zVglVkpFkiWp3NakEptVU6T9VWM1EpaA69/yXjsUO1tb/Lhjow+8GJUsHRO96VTOcc+uya1iw+auZLjwVNu6bGaWntGV930FJVragyTaxnvsxujKxp3rHWKbXNZi1nXLcLAMBGSOwAhXn46b5+8/QuElxv3LQ+m82G7Du+edPoPFWGrplqQWqcjD5fbGS3vOfQ9PYp+9thK2dvT5S27zav3PGhV1bRfz3pcMTi9zV9xdunfHWj2Sr7r5ee8eV5U81shl6aJT+Y83lHw/z7xqLjrF8/Y/WoljOu2wUAYCMkdoCKMdUkKdtEWwSdlIUy0T7t2Rkz1GTD0Ji1zIJWUgxVz2OZ6fbZ5tocsynykoOz7y1PdPyOdxYWtnN0TTZ5UTwdrPaM7yzMe9xZUVTn0rDNp3gy4tCYtXRfNzsOFnYBANgSiR2AR5LCqowKANwCiR2ARyKxAwC3Q2IH4JFI7ADA7ZDYAXgkEjsAcDskdgAeicQOANwOiR2Ax1D+avb5b4EHANgWiR0AAAC2SGIHAACALZLYAQAAYIskdgAAANgiiR0AAAC2SGIHAACALZLYAQAAYIskdgAAANgiiR0AAAC2SGIHAACALZLYAQAAYIskdgAAANgiiR0AAAC2SGIHAACALZLYAQAAYIskdgAAANgiiR0AAAC2SGIHAACALZLYAQAAYIskdgAAANgiiR0AAAC2SGIHAACALZLYAQAAYIskdgAAANgiiR0AAAC2SGIHAACALZLYAQAAYIskdgAAANgiiR0AAAC2SGIHAACALZLYAQAAYIskdgAAANgiiR0AAAC2SGIHAACALZLYAQAAYIskdgAAANgiiR0AAAC2SGIHAACALZLYAQAAYIskdgAAANgiiR0AAAC2SGIHAACALZLYAQAAYIskdgAAANgiiR0AAAC2SGIHAACALZLYAQAAYIskdgAAANgiiR0AAAC2SGIHAACALZLYAQAAYIskdgAAANgiiR0AAAC2SGIHAACALZLYAQAAYIskdgAAANgiiR0AAAC2SGIHAACALZLYAQAAYIskdgAAANgiiR0AAAC2SGIHAACALZLYAQAAYIskdgAAANgiiR0AAAC2SGIHAACALZLYAQAAYIskdgAAANgiiR0AAAC2SGIHAACALZLYAQAAYIskdgAAANgiiR0AAAC2SGIHAACALZLYAQAAYIskdgAAANgiiR0AAAC2SGIHAACALZLYAQAAYIskdgAAANgiiR0AAAC2SGIHAACALZLYAQAAYIskdgAAANgiiR0AAAC2SGIHAACALZLYAQAAYIskdgAAANgiiR0AAAC2SGIHAACALZLYAQAAYIskdgAAANgiiR0AAAC2SGIHAACALZLYAQAAYIskdgAAANgiiR0AAAC2SGIHAACALZLYAQAAYIskdgAAANgiiR0AAAC2SGIHAACALZLYAQAAYIskdgAAANgiiR0AAAC2SGIHAACALZLYAQAAYIskdgAAANgiiR0AAAC2SGIHAACALZLYAQAAYIskdgAAANgiiR0AAAC2SGIHAACALZLYAQAAYIskdgAAANgiiR0AAAC2SGIHAACALZLYAQAAYIskdgAAANgiiR0AAAC2SGIHAACALZLYAQAAYIskdgAAANgiiR0AAAC2SGIHAACALZLYAQAAYIskdgAAANgiiR0AAAC2SGIHAACALZLYAQAAYIskdgAAANgiiR0AAAC25/n5/w8HhQe9lvfbNwAAAABJRU5ErkJggg==;" parent="1" vertex="1">
                    <mxGeometry x="-890" y="10" width="1671.56" height="950" as="geometry"/>
                </mxCell>
                <mxCell id="19" value="&lt;font style=&quot;font-size: 29px&quot;&gt;Se scelta = 3&lt;br&gt;|&lt;br&gt;Calcolare i DFP2 nel secondo elenco&lt;br&gt;&lt;/font&gt;" style="rounded=0;whiteSpace=wrap;html=1;" parent="1" vertex="1">
                    <mxGeometry x="235" y="710" width="300" height="200" as="geometry"/>
                </mxCell>
                <mxCell id="20" style="edgeStyle=orthogonalEdgeStyle;rounded=0;orthogonalLoop=1;jettySize=auto;html=1;exitX=0.5;exitY=0;exitDx=0;exitDy=0;entryX=0.407;entryY=-0.03;entryDx=0;entryDy=0;entryPerimeter=0;" parent="1" source="19" target="19" edge="1">
                    <mxGeometry relative="1" as="geometry"/>
                </mxCell>
                <mxCell id="25" value="" style="endArrow=classic;html=1;entryX=0.5;entryY=0;entryDx=0;entryDy=0;exitX=0.76;exitY=0.358;exitDx=0;exitDy=0;exitPerimeter=0;" parent="1" source="18" target="19" edge="1">
                    <mxGeometry width="50" height="50" relative="1" as="geometry">
                        <mxPoint x="145" y="710" as="sourcePoint"/>
                        <mxPoint x="195" y="660" as="targetPoint"/>
                    </mxGeometry>
                </mxCell>
                <mxCell id="26" value="" style="endArrow=none;dashed=1;html=1;dashPattern=1 3;strokeWidth=2;entryX=0.858;entryY=0.558;entryDx=0;entryDy=0;entryPerimeter=0;exitX=0.691;exitY=0.558;exitDx=0;exitDy=0;exitPerimeter=0;" parent="1" source="27" target="18" edge="1">
                    <mxGeometry width="50" height="50" relative="1" as="geometry">
                        <mxPoint x="360" y="600" as="sourcePoint"/>
                        <mxPoint x="410" y="550" as="targetPoint"/>
                    </mxGeometry>
                </mxCell>
                <mxCell id="27" value="&lt;font style=&quot;font-size: 28px&quot; color=&quot;#ff8000&quot;&gt;punto2&lt;/font&gt;" style="text;html=1;strokeColor=none;fillColor=none;align=center;verticalAlign=middle;whiteSpace=wrap;rounded=0;" parent="1" vertex="1">
                    <mxGeometry x="414" y="530" width="150" height="100" as="geometry"/>
                </mxCell>
                <mxCell id="28" value="" style="endArrow=none;dashed=1;html=1;dashPattern=1 3;strokeWidth=2;entryX=0.858;entryY=0.558;entryDx=0;entryDy=0;entryPerimeter=0;exitX=0.691;exitY=0.558;exitDx=0;exitDy=0;exitPerimeter=0;" parent="1" source="18" target="27" edge="1">
                    <mxGeometry width="50" height="50" relative="1" as="geometry">
                        <mxPoint x="265.0479599999999" y="600.0999999999999" as="sourcePoint"/>
                        <mxPoint x="544.19848" y="600.0999999999999" as="targetPoint"/>
                    </mxGeometry>
                </mxCell>
            </root>
        </mxGraphModel>
    </diagram>
</mxfile>